<svg xmlns="http://www.w3.org/2000/svg" viewBox="0 0 160 100" role="presentation" focusable="false">
<!--
  CA-Fahrzeugsilhouette · Sattelauflieger · Mega
  Eigenzeichnung, markenneutral: keine Nachbildung eines konkreten Modells,
  keine Herstellermerkmale. Navy trägt die Struktur, Silber die Flächen,
  Orange markiert ausschließlich die Ladefläche.
  Gemeinsames Raster aller Typen: Kabine links, Ladung rechts, Radaufstand y≈88.
-->
<g fill="none" stroke="#0D1B2A" stroke-width="2.6" stroke-linejoin="round" stroke-linecap="round">
  <!-- Gleiche Sprache wie der Standardauflieger, aber hoher Aufbau,
       abgesetzter Hals über der Antriebsachse und kleine Räder -->
  <path d="M8 66 V40 L20 26 H40 V66 a4 4 0 0 1-4 4 H12 a4 4 0 0 1-4-4 Z" fill="#EAEEF2"/>
  <path d="M22 31 H35 V44 H12 Z" fill="#C2CCD6" stroke-width="2"/>
  <path d="M38 64 H50 V70 H38 Z" fill="#C2CCD6" stroke-width="2"/>
  <path d="M46 52 V17 a3 3 0 0 1 3-3 H153 a3 3 0 0 1 3 3 V70 H82 V52 Z" fill="#EAEEF2"/>
  <path d="M100 16 V68 M122 16 V68 M142 16 V68 M64 16 V50" stroke-width="1.6"/>
  <path d="M52 50 H78 M88 68 H150" stroke="#E87722" stroke-width="2.6"/>
  <circle cx="28" cy="76" r="10" fill="#EAEEF2"/>
  <circle cx="28" cy="76" r="3.6" fill="#C2CCD6" stroke-width="2"/>
  <circle cx="104" cy="79" r="8" fill="#EAEEF2"/>
  <circle cx="104" cy="79" r="3" fill="#C2CCD6" stroke-width="2"/>
  <circle cx="122" cy="79" r="8" fill="#EAEEF2"/>
  <circle cx="122" cy="79" r="3" fill="#C2CCD6" stroke-width="2"/>
  <circle cx="140" cy="79" r="8" fill="#EAEEF2"/>
  <circle cx="140" cy="79" r="3" fill="#C2CCD6" stroke-width="2"/>
</g>
</svg>
